<svg width="50" height="50" viewBox="0 0 50 50" xmlns="http://www.w3.org/2000/svg">
  <circle cx="25" cy="25" r="25" fill="white"/>
  <g transform="translate(4.5,5)">
    <path d="M37.0817 18.3333C36.2967 10.4717 30.0283 4.20167 22.1667 3.41833V0H18.8333V3.41833C10.9717 4.20167 4.70167 10.4717 3.91833 18.3333H0.5V21.6667H3.91833C4.70333 29.5283 10.9717 35.7983 18.8333 36.5817V40H22.1667V36.5817C30.0283 35.7967 36.2983 29.5283 37.0817 21.6667H40.5V18.3333H37.0817ZM20.5 28.3333C15.905 28.3333 12.1667 24.595 12.1667 20C12.1667 15.405 15.905 11.6667 20.5 11.6667C25.095 11.6667 28.8333 15.405 28.8333 20C28.8333 24.595 25.095 28.3333 20.5 28.3333ZM25.5 20C25.5 22.7567 23.2567 25 20.5 25C17.7433 25 15.5 22.7567 15.5 20C15.5 17.2433 17.7433 15 20.5 15C23.2567 15 25.5 17.2433 25.5 20Z" fill="#C70000"/>
  </g>
</svg>
